<svg width="1050" height="238" viewBox="0 0 1050 238" fill="none" xmlns="http://www.w3.org/2000/svg">
<rect x="297" y="45" width="457" height="79" rx="25" fill="#FF8C32"/>
<path d="M321.11 110C320.877 110 320.667 109.93 320.48 109.79C320.34 109.603 320.27 109.393 320.27 109.16V61.84C320.27 61.6067 320.34 61.42 320.48 61.28C320.667 61.0933 320.877 61 321.11 61H329.3C329.533 61 329.72 61.0933 329.86 61.28C330.047 61.42 330.14 61.6067 330.14 61.84V109.16C330.14 109.393 330.047 109.603 329.86 109.79C329.72 109.93 329.533 110 329.3 110H321.11ZM370.159 61.56C370.392 61.1867 370.719 61 371.139 61H379.329C379.562 61 379.749 61.0933 379.889 61.28C380.075 61.42 380.169 61.6067 380.169 61.84V109.16C380.169 109.393 380.075 109.603 379.889 109.79C379.749 109.93 379.562 110 379.329 110H371.139C370.905 110 370.695 109.93 370.509 109.79C370.369 109.603 370.299 109.393 370.299 109.16V78.29C370.299 78.1033 370.252 78.01 370.159 78.01C370.065 78.01 369.972 78.08 369.879 78.22L362.459 89.84C362.225 90.2133 361.899 90.4 361.479 90.4H357.349C356.929 90.4 356.602 90.2133 356.369 89.84L348.949 78.22C348.855 78.08 348.762 78.0333 348.669 78.08C348.575 78.08 348.529 78.1733 348.529 78.36V109.16C348.529 109.393 348.435 109.603 348.249 109.79C348.109 109.93 347.922 110 347.689 110H339.499C339.265 110 339.055 109.93 338.869 109.79C338.729 109.603 338.659 109.393 338.659 109.16V61.84C338.659 61.6067 338.729 61.42 338.869 61.28C339.055 61.0933 339.265 61 339.499 61H347.689C348.109 61 348.435 61.1867 348.669 61.56L359.169 77.87C359.309 78.15 359.449 78.15 359.589 77.87L370.159 61.56ZM422.648 68.63C422.648 68.8633 422.554 69.0733 422.368 69.26C422.228 69.4 422.041 69.47 421.808 69.47H398.918C398.684 69.47 398.568 69.5867 398.568 69.82V80.67C398.568 80.9033 398.684 81.02 398.918 81.02H413.968C414.201 81.02 414.388 81.1133 414.528 81.3C414.714 81.44 414.808 81.6267 414.808 81.86V88.65C414.808 88.8833 414.714 89.0933 414.528 89.28C414.388 89.42 414.201 89.49 413.968 89.49H398.918C398.684 89.49 398.568 89.6067 398.568 89.84V109.16C398.568 109.393 398.474 109.603 398.288 109.79C398.148 109.93 397.961 110 397.728 110H389.538C389.304 110 389.094 109.93 388.908 109.79C388.768 109.603 388.698 109.393 388.698 109.16V61.84C388.698 61.6067 388.768 61.42 388.908 61.28C389.094 61.0933 389.304 61 389.538 61H421.808C422.041 61 422.228 61.0933 422.368 61.28C422.554 61.42 422.648 61.6067 422.648 61.84V68.63ZM445.648 110.56C442.054 110.56 438.881 109.86 436.128 108.46C433.421 107.06 431.298 105.1 429.758 102.58C428.264 100.013 427.518 97.0733 427.518 93.76V61.84C427.518 61.6067 427.588 61.42 427.728 61.28C427.914 61.0933 428.124 61 428.358 61H436.548C436.781 61 436.968 61.0933 437.108 61.28C437.294 61.42 437.388 61.6067 437.388 61.84V93.83C437.388 96.3033 438.134 98.31 439.628 99.85C441.168 101.343 443.174 102.09 445.648 102.09C448.121 102.09 450.104 101.343 451.598 99.85C453.138 98.31 453.908 96.3033 453.908 93.83V61.84C453.908 61.6067 453.978 61.42 454.118 61.28C454.304 61.0933 454.514 61 454.748 61H462.938C463.171 61 463.358 61.0933 463.498 61.28C463.684 61.42 463.778 61.6067 463.778 61.84V93.76C463.778 97.0733 463.008 100.013 461.468 102.58C459.974 105.1 457.851 107.06 455.098 108.46C452.391 109.86 449.241 110.56 445.648 110.56ZM503.391 61.56C503.624 61.1867 503.951 61 504.371 61H512.561C512.794 61 512.981 61.0933 513.121 61.28C513.308 61.42 513.401 61.6067 513.401 61.84V109.16C513.401 109.393 513.308 109.603 513.121 109.79C512.981 109.93 512.794 110 512.561 110H504.371C504.138 110 503.928 109.93 503.741 109.79C503.601 109.603 503.531 109.393 503.531 109.16V78.29C503.531 78.1033 503.484 78.01 503.391 78.01C503.298 78.01 503.204 78.08 503.111 78.22L495.691 89.84C495.458 90.2133 495.131 90.4 494.711 90.4H490.581C490.161 90.4 489.834 90.2133 489.601 89.84L482.181 78.22C482.088 78.08 481.994 78.0333 481.901 78.08C481.808 78.08 481.761 78.1733 481.761 78.36V109.16C481.761 109.393 481.668 109.603 481.481 109.79C481.341 109.93 481.154 110 480.921 110H472.731C472.498 110 472.288 109.93 472.101 109.79C471.961 109.603 471.891 109.393 471.891 109.16V61.84C471.891 61.6067 471.961 61.42 472.101 61.28C472.288 61.0933 472.498 61 472.731 61H480.921C481.341 61 481.668 61.1867 481.901 61.56L492.401 77.87C492.541 78.15 492.681 78.15 492.821 77.87L503.391 61.56ZM553.08 110C552.613 110 552.31 109.767 552.17 109.3L550.07 102.44C549.977 102.253 549.86 102.16 549.72 102.16H532.5C532.36 102.16 532.243 102.253 532.15 102.44L530.12 109.3C529.98 109.767 529.677 110 529.21 110H520.32C520.04 110 519.83 109.93 519.69 109.79C519.55 109.603 519.527 109.347 519.62 109.02L534.74 61.7C534.88 61.2333 535.183 61 535.65 61H546.64C547.107 61 547.41 61.2333 547.55 61.7L562.67 109.02C562.717 109.113 562.74 109.23 562.74 109.37C562.74 109.79 562.483 110 561.97 110H553.08ZM534.67 94.11C534.623 94.39 534.717 94.53 534.95 94.53H547.27C547.55 94.53 547.643 94.39 547.55 94.11L541.25 73.32C541.203 73.1333 541.133 73.0633 541.04 73.11C540.947 73.11 540.877 73.18 540.83 73.32L534.67 94.11ZM597.033 61.84C597.033 61.6067 597.103 61.42 597.243 61.28C597.43 61.0933 597.64 61 597.873 61H606.063C606.296 61 606.483 61.0933 606.623 61.28C606.81 61.42 606.903 61.6067 606.903 61.84V109.16C606.903 109.393 606.81 109.603 606.623 109.79C606.483 109.93 606.296 110 606.063 110H598.153C597.686 110 597.36 109.813 597.173 109.44L579.043 79.48C578.95 79.34 578.856 79.2933 578.763 79.34C578.67 79.34 578.623 79.4333 578.623 79.62L578.763 109.16C578.763 109.393 578.67 109.603 578.483 109.79C578.343 109.93 578.156 110 577.923 110H569.733C569.5 110 569.29 109.93 569.103 109.79C568.963 109.603 568.893 109.393 568.893 109.16V61.84C568.893 61.6067 568.963 61.42 569.103 61.28C569.29 61.0933 569.5 61 569.733 61H577.643C578.11 61 578.436 61.1867 578.623 61.56L596.683 91.38C596.776 91.52 596.87 91.59 596.963 91.59C597.056 91.5433 597.103 91.4267 597.103 91.24L597.033 61.84ZM649.056 68.63C649.056 68.8633 648.962 69.0733 648.776 69.26C648.636 69.4 648.449 69.47 648.216 69.47H625.256C625.022 69.47 624.906 69.5867 624.906 69.82V80.67C624.906 80.9033 625.022 81.02 625.256 81.02H640.306C640.539 81.02 640.726 81.1133 640.866 81.3C641.052 81.44 641.146 81.6267 641.146 81.86V88.65C641.146 88.8833 641.052 89.0933 640.866 89.28C640.726 89.42 640.539 89.49 640.306 89.49H625.256C625.022 89.49 624.906 89.6067 624.906 89.84V101.18C624.906 101.413 625.022 101.53 625.256 101.53H648.216C648.449 101.53 648.636 101.623 648.776 101.81C648.962 101.95 649.056 102.137 649.056 102.37V109.16C649.056 109.393 648.962 109.603 648.776 109.79C648.636 109.93 648.449 110 648.216 110H615.876C615.642 110 615.432 109.93 615.246 109.79C615.106 109.603 615.036 109.393 615.036 109.16V61.84C615.036 61.6067 615.106 61.42 615.246 61.28C615.432 61.0933 615.642 61 615.876 61H648.216C648.449 61 648.636 61.0933 648.776 61.28C648.962 61.42 649.056 61.6067 649.056 61.84V68.63ZM656.755 110C656.521 110 656.311 109.93 656.125 109.79C655.985 109.603 655.915 109.393 655.915 109.16V61.84C655.915 61.6067 655.985 61.42 656.125 61.28C656.311 61.0933 656.521 61 656.755 61H664.945C665.178 61 665.365 61.0933 665.505 61.28C665.691 61.42 665.785 61.6067 665.785 61.84V81.44C665.785 81.58 665.831 81.6733 665.925 81.72C666.018 81.72 666.111 81.6733 666.205 81.58L682.375 61.49C682.655 61.1633 683.005 61 683.425 61H692.665C693.038 61 693.271 61.1167 693.365 61.35C693.458 61.5367 693.411 61.77 693.225 62.05L677.615 82C677.475 82.1867 677.451 82.35 677.545 82.49L694.065 109.02C694.158 109.3 694.205 109.463 694.205 109.51C694.205 109.837 693.971 110 693.505 110H684.265C683.798 110 683.471 109.813 683.285 109.44L670.825 89.28C670.778 89.1867 670.708 89.14 670.615 89.14C670.521 89.14 670.428 89.1867 670.335 89.28L665.925 94.81C665.831 94.9967 665.785 95.1367 665.785 95.23V109.16C665.785 109.393 665.691 109.603 665.505 109.79C665.365 109.93 665.178 110 664.945 110H656.755ZM715.112 110.77C711.472 110.77 708.252 110.023 705.452 108.53C702.699 107.037 700.552 104.96 699.012 102.3C697.472 99.5933 696.702 96.49 696.702 92.99V78.01C696.702 74.5567 697.472 71.5 699.012 68.84C700.552 66.18 702.699 64.1267 705.452 62.68C708.252 61.1867 711.472 60.44 715.112 60.44C718.799 60.44 722.019 61.1867 724.772 62.68C727.572 64.1267 729.742 66.18 731.282 68.84C732.822 71.5 733.592 74.5567 733.592 78.01V92.99C733.592 96.49 732.822 99.5933 731.282 102.3C729.742 105.007 727.572 107.107 724.772 108.6C722.019 110.047 718.799 110.77 715.112 110.77ZM715.112 102.3C717.679 102.3 719.755 101.483 721.342 99.85C722.929 98.2167 723.722 96.0467 723.722 93.34V77.94C723.722 75.2333 722.929 73.0633 721.342 71.43C719.802 69.75 717.725 68.91 715.112 68.91C712.545 68.91 710.469 69.75 708.882 71.43C707.342 73.0633 706.572 75.2333 706.572 77.94V93.34C706.572 96.0467 707.342 98.2167 708.882 99.85C710.469 101.483 712.545 102.3 715.112 102.3Z" fill="white"/>
<path d="M408.35 150.85C408.35 151.183 408.183 151.35 407.85 151.35H388.95C388.817 151.35 388.75 151.417 388.75 151.55V165.05C388.75 165.183 388.817 165.25 388.95 165.25H402.35C402.683 165.25 402.85 165.417 402.85 165.75V167.1C402.85 167.433 402.683 167.6 402.35 167.6H388.95C388.817 167.6 388.75 167.667 388.75 167.8V183.5C388.75 183.833 388.583 184 388.25 184H386.6C386.267 184 386.1 183.833 386.1 183.5V149.5C386.1 149.167 386.267 149 386.6 149H407.85C408.183 149 408.35 149.167 408.35 149.5V150.85ZM424.82 184.4C422.52 184.4 420.487 183.933 418.72 183C416.987 182.033 415.637 180.7 414.67 179C413.737 177.267 413.27 175.283 413.27 173.05V159.95C413.27 157.717 413.737 155.75 414.67 154.05C415.637 152.317 416.987 150.983 418.72 150.05C420.487 149.083 422.52 148.6 424.82 148.6C427.12 148.6 429.154 149.083 430.92 150.05C432.687 150.983 434.054 152.317 435.02 154.05C435.987 155.75 436.47 157.717 436.47 159.95V173.05C436.47 175.283 435.987 177.267 435.02 179C434.054 180.7 432.687 182.033 430.92 183C429.154 183.933 427.12 184.4 424.82 184.4ZM424.82 182.1C427.52 182.1 429.687 181.283 431.32 179.65C432.987 178.017 433.82 175.85 433.82 173.15V159.9C433.82 157.233 432.987 155.083 431.32 153.45C429.687 151.783 427.52 150.95 424.82 150.95C422.154 150.95 420.004 151.783 418.37 153.45C416.737 155.083 415.92 157.233 415.92 159.9V173.15C415.92 175.85 416.737 178.017 418.37 179.65C420.004 181.283 422.154 182.1 424.82 182.1ZM456.724 184.4C454.424 184.4 452.39 183.95 450.624 183.05C448.89 182.117 447.54 180.817 446.574 179.15C445.607 177.483 445.124 175.567 445.124 173.4V149.5C445.124 149.167 445.29 149 445.624 149H447.274C447.607 149 447.774 149.167 447.774 149.5V173.5C447.774 176.067 448.59 178.133 450.224 179.7C451.89 181.267 454.057 182.05 456.724 182.05C459.424 182.05 461.59 181.267 463.224 179.7C464.857 178.133 465.674 176.067 465.674 173.5V149.5C465.674 149.167 465.84 149 466.174 149H467.824C468.157 149 468.324 149.167 468.324 149.5V173.4C468.324 175.567 467.84 177.483 466.874 179.15C465.907 180.817 464.54 182.117 462.774 183.05C461.04 183.95 459.024 184.4 456.724 184.4ZM499.29 149.5C499.29 149.167 499.457 149 499.79 149H501.44C501.773 149 501.94 149.167 501.94 149.5V183.5C501.94 183.833 501.773 184 501.44 184H499.79C499.557 184 499.357 183.883 499.19 183.65L481.09 154.3C481.057 154.2 481.007 154.167 480.94 154.2C480.873 154.2 480.84 154.25 480.84 154.35V183.5C480.84 183.833 480.673 184 480.34 184H478.69C478.357 184 478.19 183.833 478.19 183.5V149.5C478.19 149.167 478.357 149 478.69 149H480.39C480.623 149 480.823 149.117 480.99 149.35L499.04 178.7C499.073 178.8 499.123 178.85 499.19 178.85C499.257 178.817 499.29 178.75 499.29 178.65V149.5ZM511.844 184C511.511 184 511.344 183.833 511.344 183.5V149.5C511.344 149.167 511.511 149 511.844 149H523.444C526.644 149 529.177 149.85 531.044 151.55C532.911 153.217 533.844 155.5 533.844 158.4V174.6C533.844 177.5 532.911 179.8 531.044 181.5C529.177 183.167 526.644 184 523.444 184H511.844ZM513.994 181.45C513.994 181.583 514.061 181.65 514.194 181.65H523.594C525.927 181.65 527.761 181 529.094 179.7C530.461 178.367 531.161 176.567 531.194 174.3V158.7C531.194 156.433 530.511 154.65 529.144 153.35C527.811 152.017 525.961 151.35 523.594 151.35H514.194C514.061 151.35 513.994 151.417 513.994 151.55V181.45ZM561.676 184C561.376 184 561.176 183.867 561.076 183.6L558.926 176.95C558.892 176.85 558.826 176.8 558.726 176.8H543.126C543.026 176.8 542.959 176.85 542.926 176.95L540.826 183.6C540.726 183.867 540.526 184 540.226 184H538.476C538.109 184 537.976 183.817 538.076 183.45L549.176 149.4C549.276 149.133 549.476 149 549.776 149H552.026C552.326 149 552.526 149.133 552.626 149.4L563.776 183.45L563.826 183.65C563.826 183.883 563.676 184 563.376 184H561.676ZM543.726 174.35C543.692 174.417 543.692 174.483 543.726 174.55C543.792 174.583 543.859 174.6 543.926 174.6H557.926C557.992 174.6 558.042 174.583 558.076 174.55C558.142 174.483 558.159 174.417 558.126 174.35L551.076 152.6C551.042 152.533 550.992 152.5 550.926 152.5C550.859 152.5 550.809 152.533 550.776 152.6L543.726 174.35ZM588.138 149C588.472 149 588.638 149.167 588.638 149.5V150.85C588.638 151.183 588.472 151.35 588.138 151.35H578.138C578.005 151.35 577.938 151.417 577.938 151.55V183.5C577.938 183.833 577.772 184 577.438 184H575.788C575.455 184 575.288 183.833 575.288 183.5V151.55C575.288 151.417 575.222 151.35 575.088 151.35H565.588C565.255 151.35 565.088 151.183 565.088 150.85V149.5C565.088 149.167 565.255 149 565.588 149H588.138ZM596.61 184C596.276 184 596.11 183.833 596.11 183.5V149.5C596.11 149.167 596.276 149 596.61 149H598.26C598.593 149 598.76 149.167 598.76 149.5V183.5C598.76 183.833 598.593 184 598.26 184H596.61ZM619.4 184.4C617.1 184.4 615.067 183.933 613.3 183C611.567 182.033 610.217 180.7 609.25 179C608.317 177.267 607.85 175.283 607.85 173.05V159.95C607.85 157.717 608.317 155.75 609.25 154.05C610.217 152.317 611.567 150.983 613.3 150.05C615.067 149.083 617.1 148.6 619.4 148.6C621.7 148.6 623.734 149.083 625.5 150.05C627.267 150.983 628.634 152.317 629.6 154.05C630.567 155.75 631.05 157.717 631.05 159.95V173.05C631.05 175.283 630.567 177.267 629.6 179C628.634 180.7 627.267 182.033 625.5 183C623.734 183.933 621.7 184.4 619.4 184.4ZM619.4 182.1C622.1 182.1 624.267 181.283 625.9 179.65C627.567 178.017 628.4 175.85 628.4 173.15V159.9C628.4 157.233 627.567 155.083 625.9 153.45C624.267 151.783 622.1 150.95 619.4 150.95C616.734 150.95 614.584 151.783 612.95 153.45C611.317 155.083 610.5 157.233 610.5 159.9V173.15C610.5 175.85 611.317 178.017 612.95 179.65C614.584 181.283 616.734 182.1 619.4 182.1ZM661.204 149.5C661.204 149.167 661.371 149 661.704 149H663.354C663.687 149 663.854 149.167 663.854 149.5V183.5C663.854 183.833 663.687 184 663.354 184H661.704C661.471 184 661.271 183.883 661.104 183.65L643.004 154.3C642.971 154.2 642.921 154.167 642.854 154.2C642.787 154.2 642.754 154.25 642.754 154.35V183.5C642.754 183.833 642.587 184 642.254 184H640.604C640.271 184 640.104 183.833 640.104 183.5V149.5C640.104 149.167 640.271 149 640.604 149H642.304C642.537 149 642.737 149.117 642.904 149.35L660.954 178.7C660.987 178.8 661.037 178.85 661.104 178.85C661.171 178.817 661.204 178.75 661.204 178.65V149.5Z" fill="black"/>
<line x1="301" y1="208" x2="751" y2="208" stroke="black" stroke-width="8"/>
<line x1="301" y1="23" x2="751" y2="23" stroke="black" stroke-width="8"/>
</svg>
