<svg width="1376" height="768" viewBox="0 0 1376 768" fill="none" xmlns="http://www.w3.org/2000/svg">
<rect x="368" y="262" width="640" height="120" rx="25" fill="#FF8C32"/>
<path d="M397.3 357C396.967 357 396.667 356.9 396.4 356.7C396.2 356.433 396.1 356.133 396.1 355.8V288.2C396.1 287.867 396.2 287.6 396.4 287.4C396.667 287.133 396.967 287 397.3 287H409C409.333 287 409.6 287.133 409.8 287.4C410.067 287.6 410.2 287.867 410.2 288.2V355.8C410.2 356.133 410.067 356.433 409.8 356.7C409.6 356.9 409.333 357 409 357H397.3ZM467.37 287.8C467.703 287.267 468.17 287 468.77 287H480.47C480.803 287 481.07 287.133 481.27 287.4C481.536 287.6 481.67 287.867 481.67 288.2V355.8C481.67 356.133 481.536 356.433 481.27 356.7C481.07 356.9 480.803 357 480.47 357H468.77C468.436 357 468.136 356.9 467.87 356.7C467.67 356.433 467.57 356.133 467.57 355.8V311.7C467.57 311.433 467.503 311.3 467.37 311.3C467.236 311.3 467.103 311.4 466.97 311.6L456.37 328.2C456.036 328.733 455.57 329 454.97 329H449.07C448.47 329 448.003 328.733 447.67 328.2L437.07 311.6C436.936 311.4 436.803 311.333 436.67 311.4C436.536 311.4 436.47 311.533 436.47 311.8V355.8C436.47 356.133 436.336 356.433 436.07 356.7C435.87 356.9 435.603 357 435.27 357H423.57C423.236 357 422.936 356.9 422.67 356.7C422.47 356.433 422.37 356.133 422.37 355.8V288.2C422.37 287.867 422.47 287.6 422.67 287.4C422.936 287.133 423.236 287 423.57 287H435.27C435.87 287 436.336 287.267 436.67 287.8L451.67 311.1C451.87 311.5 452.07 311.5 452.27 311.1L467.37 287.8ZM542.354 297.9C542.354 298.233 542.221 298.533 541.954 298.8C541.754 299 541.487 299.1 541.154 299.1H508.454C508.121 299.1 507.954 299.267 507.954 299.6V315.1C507.954 315.433 508.121 315.6 508.454 315.6H529.954C530.287 315.6 530.554 315.733 530.754 316C531.021 316.2 531.154 316.467 531.154 316.8V326.5C531.154 326.833 531.021 327.133 530.754 327.4C530.554 327.6 530.287 327.7 529.954 327.7H508.454C508.121 327.7 507.954 327.867 507.954 328.2V355.8C507.954 356.133 507.821 356.433 507.554 356.7C507.354 356.9 507.087 357 506.754 357H495.054C494.721 357 494.421 356.9 494.154 356.7C493.954 356.433 493.854 356.133 493.854 355.8V288.2C493.854 287.867 493.954 287.6 494.154 287.4C494.421 287.133 494.721 287 495.054 287H541.154C541.487 287 541.754 287.133 541.954 287.4C542.221 287.6 542.354 287.867 542.354 288.2V297.9ZM575.211 357.8C570.078 357.8 565.544 356.8 561.611 354.8C557.744 352.8 554.711 350 552.511 346.4C550.378 342.733 549.311 338.533 549.311 333.8V288.2C549.311 287.867 549.411 287.6 549.611 287.4C549.878 287.133 550.178 287 550.511 287H562.211C562.544 287 562.811 287.133 563.011 287.4C563.278 287.6 563.411 287.867 563.411 288.2V333.9C563.411 337.433 564.478 340.3 566.611 342.5C568.811 344.633 571.678 345.7 575.211 345.7C578.744 345.7 581.578 344.633 583.711 342.5C585.911 340.3 587.011 337.433 587.011 333.9V288.2C587.011 287.867 587.111 287.6 587.311 287.4C587.578 287.133 587.878 287 588.211 287H599.911C600.244 287 600.511 287.133 600.711 287.4C600.978 287.6 601.111 287.867 601.111 288.2V333.8C601.111 338.533 600.011 342.733 597.811 346.4C595.678 350 592.644 352.8 588.711 354.8C584.844 356.8 580.344 357.8 575.211 357.8ZM657.702 287.8C658.035 287.267 658.502 287 659.102 287H670.802C671.135 287 671.402 287.133 671.602 287.4C671.868 287.6 672.002 287.867 672.002 288.2V355.8C672.002 356.133 671.868 356.433 671.602 356.7C671.402 356.9 671.135 357 670.802 357H659.102C658.768 357 658.468 356.9 658.202 356.7C658.002 356.433 657.902 356.133 657.902 355.8V311.7C657.902 311.433 657.835 311.3 657.702 311.3C657.568 311.3 657.435 311.4 657.302 311.6L646.702 328.2C646.368 328.733 645.902 329 645.302 329H639.402C638.802 329 638.335 328.733 638.002 328.2L627.402 311.6C627.268 311.4 627.135 311.333 627.002 311.4C626.868 311.4 626.802 311.533 626.802 311.8V355.8C626.802 356.133 626.668 356.433 626.402 356.7C626.202 356.9 625.935 357 625.602 357H613.902C613.568 357 613.268 356.9 613.002 356.7C612.802 356.433 612.702 356.133 612.702 355.8V288.2C612.702 287.867 612.802 287.6 613.002 287.4C613.268 287.133 613.568 287 613.902 287H625.602C626.202 287 626.668 287.267 627.002 287.8L642.002 311.1C642.202 311.5 642.402 311.5 642.602 311.1L657.702 287.8ZM728.686 357C728.019 357 727.586 356.667 727.386 356L724.386 346.2C724.253 345.933 724.086 345.8 723.886 345.8H699.286C699.086 345.8 698.919 345.933 698.786 346.2L695.886 356C695.686 356.667 695.253 357 694.586 357H681.886C681.486 357 681.186 356.9 680.986 356.7C680.786 356.433 680.753 356.067 680.886 355.6L702.486 288C702.686 287.333 703.119 287 703.786 287H719.486C720.153 287 720.586 287.333 720.786 288L742.386 355.6C742.453 355.733 742.486 355.9 742.486 356.1C742.486 356.7 742.119 357 741.386 357H728.686ZM702.386 334.3C702.319 334.7 702.453 334.9 702.786 334.9H720.386C720.786 334.9 720.919 334.7 720.786 334.3L711.786 304.6C711.719 304.333 711.619 304.233 711.486 304.3C711.353 304.3 711.253 304.4 711.186 304.6L702.386 334.3ZM791.476 288.2C791.476 287.867 791.576 287.6 791.776 287.4C792.042 287.133 792.342 287 792.676 287H804.376C804.709 287 804.976 287.133 805.176 287.4C805.442 287.6 805.576 287.867 805.576 288.2V355.8C805.576 356.133 805.442 356.433 805.176 356.7C804.976 356.9 804.709 357 804.376 357H793.076C792.409 357 791.942 356.733 791.676 356.2L765.776 313.4C765.642 313.2 765.509 313.133 765.376 313.2C765.242 313.2 765.176 313.333 765.176 313.6L765.376 355.8C765.376 356.133 765.242 356.433 764.976 356.7C764.776 356.9 764.509 357 764.176 357H752.476C752.142 357 751.842 356.9 751.576 356.7C751.376 356.433 751.276 356.133 751.276 355.8V288.2C751.276 287.867 751.376 287.6 751.576 287.4C751.842 287.133 752.142 287 752.476 287H763.776C764.442 287 764.909 287.267 765.176 287.8L790.976 330.4C791.109 330.6 791.242 330.7 791.376 330.7C791.509 330.633 791.576 330.467 791.576 330.2L791.476 288.2ZM865.794 297.9C865.794 298.233 865.66 298.533 865.394 298.8C865.194 299 864.927 299.1 864.594 299.1H831.794C831.46 299.1 831.294 299.267 831.294 299.6V315.1C831.294 315.433 831.46 315.6 831.794 315.6H853.294C853.627 315.6 853.894 315.733 854.094 316C854.36 316.2 854.494 316.467 854.494 316.8V326.5C854.494 326.833 854.36 327.133 854.094 327.4C853.894 327.6 853.627 327.7 853.294 327.7H831.794C831.46 327.7 831.294 327.867 831.294 328.2V344.4C831.294 344.733 831.46 344.9 831.794 344.9H864.594C864.927 344.9 865.194 345.033 865.394 345.3C865.66 345.5 865.794 345.767 865.794 346.1V355.8C865.794 356.133 865.66 356.433 865.394 356.7C865.194 356.9 864.927 357 864.594 357H818.394C818.06 357 817.76 356.9 817.494 356.7C817.294 356.433 817.194 356.133 817.194 355.8V288.2C817.194 287.867 817.294 287.6 817.494 287.4C817.76 287.133 818.06 287 818.394 287H864.594C864.927 287 865.194 287.133 865.394 287.4C865.66 287.6 865.794 287.867 865.794 288.2V297.9ZM876.792 357C876.459 357 876.159 356.9 875.892 356.7C875.692 356.433 875.592 356.133 875.592 355.8V288.2C875.592 287.867 875.692 287.6 875.892 287.4C876.159 287.133 876.459 287 876.792 287H888.492C888.826 287 889.092 287.133 889.292 287.4C889.559 287.6 889.692 287.867 889.692 288.2V316.2C889.692 316.4 889.759 316.533 889.892 316.6C890.026 316.6 890.159 316.533 890.292 316.4L913.392 287.7C913.792 287.233 914.292 287 914.892 287H928.092C928.626 287 928.959 287.167 929.092 287.5C929.226 287.767 929.159 288.1 928.892 288.5L906.592 317C906.392 317.267 906.359 317.5 906.492 317.7L930.092 355.6C930.226 356 930.292 356.233 930.292 356.3C930.292 356.767 929.959 357 929.292 357H916.092C915.426 357 914.959 356.733 914.692 356.2L896.892 327.4C896.826 327.267 896.726 327.2 896.592 327.2C896.459 327.2 896.326 327.267 896.192 327.4L889.892 335.3C889.759 335.567 889.692 335.767 889.692 335.9V355.8C889.692 356.133 889.559 356.433 889.292 356.7C889.092 356.9 888.826 357 888.492 357H876.792ZM960.16 358.1C954.96 358.1 950.36 357.033 946.36 354.9C942.427 352.767 939.36 349.8 937.16 346C934.96 342.133 933.86 337.7 933.86 332.7V311.3C933.86 306.367 934.96 302 937.16 298.2C939.36 294.4 942.427 291.467 946.36 289.4C950.36 287.267 954.96 286.2 960.16 286.2C965.427 286.2 970.027 287.267 973.96 289.4C977.96 291.467 981.06 294.4 983.26 298.2C985.46 302 986.56 306.367 986.56 311.3V332.7C986.56 337.7 985.46 342.133 983.26 346C981.06 349.867 977.96 352.867 973.96 355C970.027 357.067 965.427 358.1 960.16 358.1ZM960.16 346C963.827 346 966.793 344.833 969.06 342.5C971.327 340.167 972.46 337.067 972.46 333.2V311.2C972.46 307.333 971.327 304.233 969.06 301.9C966.86 299.5 963.893 298.3 960.16 298.3C956.493 298.3 953.527 299.5 951.26 301.9C949.06 304.233 947.96 307.333 947.96 311.2V333.2C947.96 337.067 949.06 340.167 951.26 342.5C953.527 344.833 956.493 346 960.16 346Z" fill="white"/>
<path d="M500.76 427.96C500.76 428.493 500.493 428.76 499.96 428.76H469.72C469.507 428.76 469.4 428.867 469.4 429.08V450.68C469.4 450.893 469.507 451 469.72 451H491.16C491.693 451 491.96 451.267 491.96 451.8V453.96C491.96 454.493 491.693 454.76 491.16 454.76H469.72C469.507 454.76 469.4 454.867 469.4 455.08V480.2C469.4 480.733 469.133 481 468.6 481H465.96C465.427 481 465.16 480.733 465.16 480.2V425.8C465.16 425.267 465.427 425 465.96 425H499.96C500.493 425 500.76 425.267 500.76 425.8V427.96ZM527.113 481.64C523.433 481.64 520.179 480.893 517.353 479.4C514.579 477.853 512.419 475.72 510.873 473C509.379 470.227 508.633 467.053 508.633 463.48V442.52C508.633 438.947 509.379 435.8 510.873 433.08C512.419 430.307 514.579 428.173 517.353 426.68C520.179 425.133 523.433 424.36 527.113 424.36C530.793 424.36 534.046 425.133 536.873 426.68C539.699 428.173 541.886 430.307 543.432 433.08C544.979 435.8 545.753 438.947 545.753 442.52V463.48C545.753 467.053 544.979 470.227 543.432 473C541.886 475.72 539.699 477.853 536.873 479.4C534.046 480.893 530.793 481.64 527.113 481.64ZM527.113 477.96C531.433 477.96 534.899 476.653 537.513 474.04C540.179 471.427 541.513 467.96 541.513 463.64V442.44C541.513 438.173 540.179 434.733 537.513 432.12C534.899 429.453 531.433 428.12 527.113 428.12C522.846 428.12 519.406 429.453 516.793 432.12C514.179 434.733 512.872 438.173 512.872 442.44V463.64C512.872 467.96 514.179 471.427 516.793 474.04C519.406 476.653 522.846 477.96 527.113 477.96ZM578.158 481.64C574.478 481.64 571.225 480.92 568.398 479.48C565.625 477.987 563.465 475.907 561.918 473.24C560.371 470.573 559.598 467.507 559.598 464.04V425.8C559.598 425.267 559.865 425 560.398 425H563.038C563.571 425 563.838 425.267 563.838 425.8V464.2C563.838 468.307 565.145 471.613 567.758 474.12C570.425 476.627 573.891 477.88 578.158 477.88C582.478 477.88 585.945 476.627 588.558 474.12C591.171 471.613 592.478 468.307 592.478 464.2V425.8C592.478 425.267 592.745 425 593.278 425H595.918C596.451 425 596.718 425.267 596.718 425.8V464.04C596.718 467.507 595.945 470.573 594.398 473.24C592.851 475.907 590.665 477.987 587.838 479.48C585.065 480.92 581.838 481.64 578.158 481.64ZM646.264 425.8C646.264 425.267 646.53 425 647.064 425H649.704C650.237 425 650.504 425.267 650.504 425.8V480.2C650.504 480.733 650.237 481 649.704 481H647.064C646.69 481 646.37 480.813 646.104 480.44L617.144 433.48C617.09 433.32 617.01 433.267 616.904 433.32C616.797 433.32 616.744 433.4 616.744 433.56V480.2C616.744 480.733 616.477 481 615.944 481H613.304C612.77 481 612.504 480.733 612.504 480.2V425.8C612.504 425.267 612.77 425 613.304 425H616.024C616.397 425 616.717 425.187 616.984 425.56L645.864 472.52C645.917 472.68 645.997 472.76 646.104 472.76C646.21 472.707 646.264 472.6 646.264 472.44V425.8ZM666.351 481C665.817 481 665.551 480.733 665.551 480.2V425.8C665.551 425.267 665.817 425 666.351 425H684.911C690.031 425 694.084 426.36 697.071 429.08C700.057 431.747 701.551 435.4 701.551 440.04V465.96C701.551 470.6 700.057 474.28 697.071 477C694.084 479.667 690.031 481 684.911 481H666.351ZM669.791 476.92C669.791 477.133 669.897 477.24 670.111 477.24H685.151C688.884 477.24 691.817 476.2 693.951 474.12C696.137 471.987 697.257 469.107 697.311 465.48V440.52C697.311 436.893 696.217 434.04 694.031 431.96C691.897 429.827 688.937 428.76 685.151 428.76H670.111C669.897 428.76 669.791 428.867 669.791 429.08V476.92ZM746.081 481C745.601 481 745.281 480.787 745.121 480.36L741.681 469.72C741.628 469.56 741.521 469.48 741.361 469.48H716.401C716.241 469.48 716.135 469.56 716.081 469.72L712.721 480.36C712.561 480.787 712.241 481 711.761 481H708.961C708.375 481 708.161 480.707 708.321 480.12L726.081 425.64C726.241 425.213 726.561 425 727.041 425H730.641C731.121 425 731.441 425.213 731.601 425.64L749.441 480.12L749.521 480.44C749.521 480.813 749.281 481 748.801 481H746.081ZM717.361 465.56C717.308 465.667 717.308 465.773 717.361 465.88C717.468 465.933 717.575 465.96 717.681 465.96H740.081C740.188 465.96 740.268 465.933 740.321 465.88C740.428 465.773 740.455 465.667 740.401 465.56L729.121 430.76C729.068 430.653 728.988 430.6 728.881 430.6C728.775 430.6 728.695 430.653 728.641 430.76L717.361 465.56ZM788.421 425C788.955 425 789.221 425.267 789.221 425.8V427.96C789.221 428.493 788.955 428.76 788.421 428.76H772.421C772.208 428.76 772.101 428.867 772.101 429.08V480.2C772.101 480.733 771.835 481 771.301 481H768.661C768.128 481 767.861 480.733 767.861 480.2V429.08C767.861 428.867 767.755 428.76 767.541 428.76H752.341C751.808 428.76 751.541 428.493 751.541 427.96V425.8C751.541 425.267 751.808 425 752.341 425H788.421ZM801.976 481C801.442 481 801.176 480.733 801.176 480.2V425.8C801.176 425.267 801.442 425 801.976 425H804.616C805.149 425 805.416 425.267 805.416 425.8V480.2C805.416 480.733 805.149 481 804.616 481H801.976ZM838.441 481.64C834.761 481.64 831.507 480.893 828.681 479.4C825.907 477.853 823.747 475.72 822.201 473C820.707 470.227 819.961 467.053 819.961 463.48V442.52C819.961 438.947 820.707 435.8 822.201 433.08C823.747 430.307 825.907 428.173 828.681 426.68C831.507 425.133 834.761 424.36 838.441 424.36C842.121 424.36 845.374 425.133 848.201 426.68C851.027 428.173 853.214 430.307 854.761 433.08C856.307 435.8 857.081 438.947 857.081 442.52V463.48C857.081 467.053 856.307 470.227 854.761 473C853.214 475.72 851.027 477.853 848.201 479.4C845.374 480.893 842.121 481.64 838.441 481.64ZM838.441 477.96C842.761 477.96 846.227 476.653 848.841 474.04C851.507 471.427 852.841 467.96 852.841 463.64V442.44C852.841 438.173 851.507 434.733 848.841 432.12C846.227 429.453 842.761 428.12 838.441 428.12C834.174 428.12 830.734 429.453 828.121 432.12C825.507 434.733 824.201 438.173 824.201 442.44V463.64C824.201 467.96 825.507 471.427 828.121 474.04C830.734 476.653 834.174 477.96 838.441 477.96ZM905.326 425.8C905.326 425.267 905.593 425 906.126 425H908.766C909.3 425 909.566 425.267 909.566 425.8V480.2C909.566 480.733 909.3 481 908.766 481H906.126C905.753 481 905.433 480.813 905.166 480.44L876.206 433.48C876.153 433.32 876.073 433.267 875.966 433.32C875.86 433.32 875.806 433.4 875.806 433.56V480.2C875.806 480.733 875.54 481 875.006 481H872.366C871.833 481 871.566 480.733 871.566 480.2V425.8C871.566 425.267 871.833 425 872.366 425H875.086C875.46 425 875.78 425.187 876.046 425.56L904.926 472.52C904.98 472.68 905.06 472.76 905.166 472.76C905.273 472.707 905.326 472.6 905.326 472.44V425.8Z" fill="black"/>
<line x1="404" y1="534" x2="972.003" y2="534" stroke="black" stroke-width="8"/>
<line x1="404" y1="225" x2="972.003" y2="225" stroke="black" stroke-width="8"/>
<rect x="0.5" y="0.5" width="1375" height="767" stroke="black"/>
</svg>
