<svg width="1050" height="640" viewBox="0 0 1050 640" fill="none" xmlns="http://www.w3.org/2000/svg">
<rect width="1050" height="640" fill="white"/>
<rect x="205" y="199" width="640" height="120" rx="25" fill="#FF8C32"/>
<path d="M234.3 294C233.967 294 233.667 293.9 233.4 293.7C233.2 293.433 233.1 293.133 233.1 292.8V225.2C233.1 224.867 233.2 224.6 233.4 224.4C233.667 224.133 233.967 224 234.3 224H246C246.333 224 246.6 224.133 246.8 224.4C247.067 224.6 247.2 224.867 247.2 225.2V292.8C247.2 293.133 247.067 293.433 246.8 293.7C246.6 293.9 246.333 294 246 294H234.3ZM304.37 224.8C304.703 224.267 305.17 224 305.77 224H317.47C317.803 224 318.07 224.133 318.27 224.4C318.536 224.6 318.67 224.867 318.67 225.2V292.8C318.67 293.133 318.536 293.433 318.27 293.7C318.07 293.9 317.803 294 317.47 294H305.77C305.436 294 305.136 293.9 304.87 293.7C304.67 293.433 304.57 293.133 304.57 292.8V248.7C304.57 248.433 304.503 248.3 304.37 248.3C304.236 248.3 304.103 248.4 303.97 248.6L293.37 265.2C293.036 265.733 292.57 266 291.97 266H286.07C285.47 266 285.003 265.733 284.67 265.2L274.07 248.6C273.936 248.4 273.803 248.333 273.67 248.4C273.536 248.4 273.47 248.533 273.47 248.8V292.8C273.47 293.133 273.336 293.433 273.07 293.7C272.87 293.9 272.603 294 272.27 294H260.57C260.236 294 259.936 293.9 259.67 293.7C259.47 293.433 259.37 293.133 259.37 292.8V225.2C259.37 224.867 259.47 224.6 259.67 224.4C259.936 224.133 260.236 224 260.57 224H272.27C272.87 224 273.336 224.267 273.67 224.8L288.67 248.1C288.87 248.5 289.07 248.5 289.27 248.1L304.37 224.8ZM379.354 234.9C379.354 235.233 379.221 235.533 378.954 235.8C378.754 236 378.487 236.1 378.154 236.1H345.454C345.121 236.1 344.954 236.267 344.954 236.6V252.1C344.954 252.433 345.121 252.6 345.454 252.6H366.954C367.287 252.6 367.554 252.733 367.754 253C368.021 253.2 368.154 253.467 368.154 253.8V263.5C368.154 263.833 368.021 264.133 367.754 264.4C367.554 264.6 367.287 264.7 366.954 264.7H345.454C345.121 264.7 344.954 264.867 344.954 265.2V292.8C344.954 293.133 344.821 293.433 344.554 293.7C344.354 293.9 344.087 294 343.754 294H332.054C331.721 294 331.421 293.9 331.154 293.7C330.954 293.433 330.854 293.133 330.854 292.8V225.2C330.854 224.867 330.954 224.6 331.154 224.4C331.421 224.133 331.721 224 332.054 224H378.154C378.487 224 378.754 224.133 378.954 224.4C379.221 224.6 379.354 224.867 379.354 225.2V234.9ZM412.211 294.8C407.078 294.8 402.544 293.8 398.611 291.8C394.744 289.8 391.711 287 389.511 283.4C387.378 279.733 386.311 275.533 386.311 270.8V225.2C386.311 224.867 386.411 224.6 386.611 224.4C386.878 224.133 387.178 224 387.511 224H399.211C399.544 224 399.811 224.133 400.011 224.4C400.278 224.6 400.411 224.867 400.411 225.2V270.9C400.411 274.433 401.478 277.3 403.611 279.5C405.811 281.633 408.678 282.7 412.211 282.7C415.744 282.7 418.578 281.633 420.711 279.5C422.911 277.3 424.011 274.433 424.011 270.9V225.2C424.011 224.867 424.111 224.6 424.311 224.4C424.578 224.133 424.878 224 425.211 224H436.911C437.244 224 437.511 224.133 437.711 224.4C437.978 224.6 438.111 224.867 438.111 225.2V270.8C438.111 275.533 437.011 279.733 434.811 283.4C432.678 287 429.644 289.8 425.711 291.8C421.844 293.8 417.344 294.8 412.211 294.8ZM494.702 224.8C495.035 224.267 495.502 224 496.102 224H507.802C508.135 224 508.402 224.133 508.602 224.4C508.868 224.6 509.002 224.867 509.002 225.2V292.8C509.002 293.133 508.868 293.433 508.602 293.7C508.402 293.9 508.135 294 507.802 294H496.102C495.768 294 495.468 293.9 495.202 293.7C495.002 293.433 494.902 293.133 494.902 292.8V248.7C494.902 248.433 494.835 248.3 494.702 248.3C494.568 248.3 494.435 248.4 494.302 248.6L483.702 265.2C483.368 265.733 482.902 266 482.302 266H476.402C475.802 266 475.335 265.733 475.002 265.2L464.402 248.6C464.268 248.4 464.135 248.333 464.002 248.4C463.868 248.4 463.802 248.533 463.802 248.8V292.8C463.802 293.133 463.668 293.433 463.402 293.7C463.202 293.9 462.935 294 462.602 294H450.902C450.568 294 450.268 293.9 450.002 293.7C449.802 293.433 449.702 293.133 449.702 292.8V225.2C449.702 224.867 449.802 224.6 450.002 224.4C450.268 224.133 450.568 224 450.902 224H462.602C463.202 224 463.668 224.267 464.002 224.8L479.002 248.1C479.202 248.5 479.402 248.5 479.602 248.1L494.702 224.8ZM565.686 294C565.019 294 564.586 293.667 564.386 293L561.386 283.2C561.253 282.933 561.086 282.8 560.886 282.8H536.286C536.086 282.8 535.919 282.933 535.786 283.2L532.886 293C532.686 293.667 532.253 294 531.586 294H518.886C518.486 294 518.186 293.9 517.986 293.7C517.786 293.433 517.753 293.067 517.886 292.6L539.486 225C539.686 224.333 540.119 224 540.786 224H556.486C557.153 224 557.586 224.333 557.786 225L579.386 292.6C579.453 292.733 579.486 292.9 579.486 293.1C579.486 293.7 579.119 294 578.386 294H565.686ZM539.386 271.3C539.319 271.7 539.453 271.9 539.786 271.9H557.386C557.786 271.9 557.919 271.7 557.786 271.3L548.786 241.6C548.719 241.333 548.619 241.233 548.486 241.3C548.353 241.3 548.253 241.4 548.186 241.6L539.386 271.3ZM628.476 225.2C628.476 224.867 628.576 224.6 628.776 224.4C629.042 224.133 629.342 224 629.676 224H641.376C641.709 224 641.976 224.133 642.176 224.4C642.442 224.6 642.576 224.867 642.576 225.2V292.8C642.576 293.133 642.442 293.433 642.176 293.7C641.976 293.9 641.709 294 641.376 294H630.076C629.409 294 628.942 293.733 628.676 293.2L602.776 250.4C602.642 250.2 602.509 250.133 602.376 250.2C602.242 250.2 602.176 250.333 602.176 250.6L602.376 292.8C602.376 293.133 602.242 293.433 601.976 293.7C601.776 293.9 601.509 294 601.176 294H589.476C589.142 294 588.842 293.9 588.576 293.7C588.376 293.433 588.276 293.133 588.276 292.8V225.2C588.276 224.867 588.376 224.6 588.576 224.4C588.842 224.133 589.142 224 589.476 224H600.776C601.442 224 601.909 224.267 602.176 224.8L627.976 267.4C628.109 267.6 628.242 267.7 628.376 267.7C628.509 267.633 628.576 267.467 628.576 267.2L628.476 225.2ZM702.794 234.9C702.794 235.233 702.66 235.533 702.394 235.8C702.194 236 701.927 236.1 701.594 236.1H668.794C668.46 236.1 668.294 236.267 668.294 236.6V252.1C668.294 252.433 668.46 252.6 668.794 252.6H690.294C690.627 252.6 690.894 252.733 691.094 253C691.36 253.2 691.494 253.467 691.494 253.8V263.5C691.494 263.833 691.36 264.133 691.094 264.4C690.894 264.6 690.627 264.7 690.294 264.7H668.794C668.46 264.7 668.294 264.867 668.294 265.2V281.4C668.294 281.733 668.46 281.9 668.794 281.9H701.594C701.927 281.9 702.194 282.033 702.394 282.3C702.66 282.5 702.794 282.767 702.794 283.1V292.8C702.794 293.133 702.66 293.433 702.394 293.7C702.194 293.9 701.927 294 701.594 294H655.394C655.06 294 654.76 293.9 654.494 293.7C654.294 293.433 654.194 293.133 654.194 292.8V225.2C654.194 224.867 654.294 224.6 654.494 224.4C654.76 224.133 655.06 224 655.394 224H701.594C701.927 224 702.194 224.133 702.394 224.4C702.66 224.6 702.794 224.867 702.794 225.2V234.9ZM713.792 294C713.459 294 713.159 293.9 712.892 293.7C712.692 293.433 712.592 293.133 712.592 292.8V225.2C712.592 224.867 712.692 224.6 712.892 224.4C713.159 224.133 713.459 224 713.792 224H725.492C725.826 224 726.092 224.133 726.292 224.4C726.559 224.6 726.692 224.867 726.692 225.2V253.2C726.692 253.4 726.759 253.533 726.892 253.6C727.026 253.6 727.159 253.533 727.292 253.4L750.392 224.7C750.792 224.233 751.292 224 751.892 224H765.092C765.626 224 765.959 224.167 766.092 224.5C766.226 224.767 766.159 225.1 765.892 225.5L743.592 254C743.392 254.267 743.359 254.5 743.492 254.7L767.092 292.6C767.226 293 767.292 293.233 767.292 293.3C767.292 293.767 766.959 294 766.292 294H753.092C752.426 294 751.959 293.733 751.692 293.2L733.892 264.4C733.826 264.267 733.726 264.2 733.592 264.2C733.459 264.2 733.326 264.267 733.192 264.4L726.892 272.3C726.759 272.567 726.692 272.767 726.692 272.9V292.8C726.692 293.133 726.559 293.433 726.292 293.7C726.092 293.9 725.826 294 725.492 294H713.792ZM797.16 295.1C791.96 295.1 787.36 294.033 783.36 291.9C779.427 289.767 776.36 286.8 774.16 283C771.96 279.133 770.86 274.7 770.86 269.7V248.3C770.86 243.367 771.96 239 774.16 235.2C776.36 231.4 779.427 228.467 783.36 226.4C787.36 224.267 791.96 223.2 797.16 223.2C802.427 223.2 807.027 224.267 810.96 226.4C814.96 228.467 818.06 231.4 820.26 235.2C822.46 239 823.56 243.367 823.56 248.3V269.7C823.56 274.7 822.46 279.133 820.26 283C818.06 286.867 814.96 289.867 810.96 292C807.027 294.067 802.427 295.1 797.16 295.1ZM797.16 283C800.827 283 803.793 281.833 806.06 279.5C808.327 277.167 809.46 274.067 809.46 270.2V248.2C809.46 244.333 808.327 241.233 806.06 238.9C803.86 236.5 800.893 235.3 797.16 235.3C793.493 235.3 790.527 236.5 788.26 238.9C786.06 241.233 784.96 244.333 784.96 248.2V270.2C784.96 274.067 786.06 277.167 788.26 279.5C790.527 281.833 793.493 283 797.16 283Z" fill="white"/>
<path d="M337.76 364.96C337.76 365.493 337.493 365.76 336.96 365.76H306.72C306.507 365.76 306.4 365.867 306.4 366.08V387.68C306.4 387.893 306.507 388 306.72 388H328.16C328.693 388 328.96 388.267 328.96 388.8V390.96C328.96 391.493 328.693 391.76 328.16 391.76H306.72C306.507 391.76 306.4 391.867 306.4 392.08V417.2C306.4 417.733 306.133 418 305.6 418H302.96C302.427 418 302.16 417.733 302.16 417.2V362.8C302.16 362.267 302.427 362 302.96 362H336.96C337.493 362 337.76 362.267 337.76 362.8V364.96ZM364.113 418.64C360.433 418.64 357.179 417.893 354.353 416.4C351.579 414.853 349.419 412.72 347.873 410C346.379 407.227 345.633 404.053 345.633 400.48V379.52C345.633 375.947 346.379 372.8 347.873 370.08C349.419 367.307 351.579 365.173 354.353 363.68C357.179 362.133 360.433 361.36 364.113 361.36C367.793 361.36 371.046 362.133 373.873 363.68C376.699 365.173 378.886 367.307 380.432 370.08C381.979 372.8 382.753 375.947 382.753 379.52V400.48C382.753 404.053 381.979 407.227 380.432 410C378.886 412.72 376.699 414.853 373.873 416.4C371.046 417.893 367.793 418.64 364.113 418.64ZM364.113 414.96C368.433 414.96 371.899 413.653 374.513 411.04C377.179 408.427 378.513 404.96 378.513 400.64V379.44C378.513 375.173 377.179 371.733 374.513 369.12C371.899 366.453 368.433 365.12 364.113 365.12C359.846 365.12 356.406 366.453 353.793 369.12C351.179 371.733 349.872 375.173 349.872 379.44V400.64C349.872 404.96 351.179 408.427 353.793 411.04C356.406 413.653 359.846 414.96 364.113 414.96ZM415.158 418.64C411.478 418.64 408.225 417.92 405.398 416.48C402.625 414.987 400.465 412.907 398.918 410.24C397.371 407.573 396.598 404.507 396.598 401.04V362.8C396.598 362.267 396.865 362 397.398 362H400.038C400.571 362 400.838 362.267 400.838 362.8V401.2C400.838 405.307 402.145 408.613 404.758 411.12C407.425 413.627 410.891 414.88 415.158 414.88C419.478 414.88 422.945 413.627 425.558 411.12C428.171 408.613 429.478 405.307 429.478 401.2V362.8C429.478 362.267 429.745 362 430.278 362H432.918C433.451 362 433.718 362.267 433.718 362.8V401.04C433.718 404.507 432.945 407.573 431.398 410.24C429.851 412.907 427.665 414.987 424.838 416.48C422.065 417.92 418.838 418.64 415.158 418.64ZM483.264 362.8C483.264 362.267 483.53 362 484.064 362H486.704C487.237 362 487.504 362.267 487.504 362.8V417.2C487.504 417.733 487.237 418 486.704 418H484.064C483.69 418 483.37 417.813 483.104 417.44L454.144 370.48C454.09 370.32 454.01 370.267 453.904 370.32C453.797 370.32 453.744 370.4 453.744 370.56V417.2C453.744 417.733 453.477 418 452.944 418H450.304C449.77 418 449.504 417.733 449.504 417.2V362.8C449.504 362.267 449.77 362 450.304 362H453.024C453.397 362 453.717 362.187 453.984 362.56L482.864 409.52C482.917 409.68 482.997 409.76 483.104 409.76C483.21 409.707 483.264 409.6 483.264 409.44V362.8ZM503.351 418C502.817 418 502.551 417.733 502.551 417.2V362.8C502.551 362.267 502.817 362 503.351 362H521.911C527.031 362 531.084 363.36 534.071 366.08C537.057 368.747 538.551 372.4 538.551 377.04V402.96C538.551 407.6 537.057 411.28 534.071 414C531.084 416.667 527.031 418 521.911 418H503.351ZM506.791 413.92C506.791 414.133 506.897 414.24 507.111 414.24H522.151C525.884 414.24 528.817 413.2 530.951 411.12C533.137 408.987 534.257 406.107 534.311 402.48V377.52C534.311 373.893 533.217 371.04 531.031 368.96C528.897 366.827 525.937 365.76 522.151 365.76H507.111C506.897 365.76 506.791 365.867 506.791 366.08V413.92ZM583.081 418C582.601 418 582.281 417.787 582.121 417.36L578.681 406.72C578.628 406.56 578.521 406.48 578.361 406.48H553.401C553.241 406.48 553.135 406.56 553.081 406.72L549.721 417.36C549.561 417.787 549.241 418 548.761 418H545.961C545.375 418 545.161 417.707 545.321 417.12L563.081 362.64C563.241 362.213 563.561 362 564.041 362H567.641C568.121 362 568.441 362.213 568.601 362.64L586.441 417.12L586.521 417.44C586.521 417.813 586.281 418 585.801 418H583.081ZM554.361 402.56C554.308 402.667 554.308 402.773 554.361 402.88C554.468 402.933 554.575 402.96 554.681 402.96H577.081C577.188 402.96 577.268 402.933 577.321 402.88C577.428 402.773 577.455 402.667 577.401 402.56L566.121 367.76C566.068 367.653 565.988 367.6 565.881 367.6C565.775 367.6 565.695 367.653 565.641 367.76L554.361 402.56ZM625.421 362C625.955 362 626.221 362.267 626.221 362.8V364.96C626.221 365.493 625.955 365.76 625.421 365.76H609.421C609.208 365.76 609.101 365.867 609.101 366.08V417.2C609.101 417.733 608.835 418 608.301 418H605.661C605.128 418 604.861 417.733 604.861 417.2V366.08C604.861 365.867 604.755 365.76 604.541 365.76H589.341C588.808 365.76 588.541 365.493 588.541 364.96V362.8C588.541 362.267 588.808 362 589.341 362H625.421ZM638.976 418C638.442 418 638.176 417.733 638.176 417.2V362.8C638.176 362.267 638.442 362 638.976 362H641.616C642.149 362 642.416 362.267 642.416 362.8V417.2C642.416 417.733 642.149 418 641.616 418H638.976ZM675.441 418.64C671.761 418.64 668.507 417.893 665.681 416.4C662.907 414.853 660.747 412.72 659.201 410C657.707 407.227 656.961 404.053 656.961 400.48V379.52C656.961 375.947 657.707 372.8 659.201 370.08C660.747 367.307 662.907 365.173 665.681 363.68C668.507 362.133 671.761 361.36 675.441 361.36C679.121 361.36 682.374 362.133 685.201 363.68C688.027 365.173 690.214 367.307 691.761 370.08C693.307 372.8 694.081 375.947 694.081 379.52V400.48C694.081 404.053 693.307 407.227 691.761 410C690.214 412.72 688.027 414.853 685.201 416.4C682.374 417.893 679.121 418.64 675.441 418.64ZM675.441 414.96C679.761 414.96 683.227 413.653 685.841 411.04C688.507 408.427 689.841 404.96 689.841 400.64V379.44C689.841 375.173 688.507 371.733 685.841 369.12C683.227 366.453 679.761 365.12 675.441 365.12C671.174 365.12 667.734 366.453 665.121 369.12C662.507 371.733 661.201 375.173 661.201 379.44V400.64C661.201 404.96 662.507 408.427 665.121 411.04C667.734 413.653 671.174 414.96 675.441 414.96ZM742.326 362.8C742.326 362.267 742.593 362 743.126 362H745.766C746.3 362 746.566 362.267 746.566 362.8V417.2C746.566 417.733 746.3 418 745.766 418H743.126C742.753 418 742.433 417.813 742.166 417.44L713.206 370.48C713.153 370.32 713.073 370.267 712.966 370.32C712.86 370.32 712.806 370.4 712.806 370.56V417.2C712.806 417.733 712.54 418 712.006 418H709.366C708.833 418 708.566 417.733 708.566 417.2V362.8C708.566 362.267 708.833 362 709.366 362H712.086C712.46 362 712.78 362.187 713.046 362.56L741.926 409.52C741.98 409.68 742.06 409.76 742.166 409.76C742.273 409.707 742.326 409.6 742.326 409.44V362.8Z" fill="black"/>
<line x1="241" y1="471" x2="809.003" y2="471" stroke="black" stroke-width="8"/>
<line x1="241" y1="162" x2="809.003" y2="162" stroke="black" stroke-width="8"/>
</svg>
